<svg
  xmlns="http://www.w3.org/2000/svg"
  version="1.1" width="500" height="300" viewBox="0 0 500 300">
  <g
    transform="translate(250, 0) rotate(45, 0, 160)"
    fill="grey">
    <rect y="100" x="-10" width="20" height="190"/>
    <circle r="10" cy="290"/>
    <ellipse cy="60" rx="35" ry="55"/>
  </g>
  <g
    transform="translate(250,0) rotate(-45, 0, 160)"
    fill="darkgrey">
    <path d="
      M -10,310 L 10,310 L10,100
      C 10,90 20,80 20,70
      L 19,0 L13,0 L11,70 L5,70 L3,0
      L-3,0 L-5,70 L-11,70 L-13,0 L-19,0 L-20,70
      C-20,80 -10,90 -10,100 Z"/>
  </g>
</svg>
